# xmcd
# Track frame offsets:
# 150
# 15450
# 33312
# 51840
# 73758
# 88474
# 103468
# 121319
# 135645
#
# Disc length: 1995 seconds
# Revision: 0
# Processed by: cddbd v1.5.1PL0 Copyright (c) Steve Scherf et al.
# Submitted via: VisiTrax 2.9.10.228 - For more info visit www.synapsa.com
#
DISCID=8007c909
DTITLE=Various Artist - Hits Monthly Nashville  PHN0212
DYEAR=1900
DGENRE=Karaoke
TTITLE0=Adkins, Trace - Chrome
TTITLE1=Dixie Chicks - Landslide
TTITLE2=McGraw, Tim - Red Ragtop
TTITLE3=Chesney, Kenny - Lot Of Things Different, A
TTITLE4=Strait, George - Shell Leave You With A Smile
TTITLE5=Johnson, Carolyn Dawn - One Day Closer To You
TTITLE6=Coffey, Kellie - At The End Of The Day
TTITLE7=Keith, Toby - Whos Your Daddy
TTITLE8=Trick Pony - On A Mission
EXTD=
EXTT0=
EXTT1=
EXTT2=
EXTT3=
EXTT4=
EXTT5=
EXTT6=
EXTT7=
EXTT8=
PLAYORDER=
